<svg width="21" height="21" viewBox="0 0 21 21" fill="none" xmlns="http://www.w3.org/2000/svg">
    <path fill-rule="evenodd" clip-rule="evenodd"
          d="M10.4997 0.000488281C4.70166 0.000488281 0.00134277 4.70068 0.00134277 10.499C0.00134277 16.2979 4.70166 20.9976 10.4997 20.9976C16.2985 20.9976 20.9982 16.2979 20.9982 10.499C20.9982 4.70068 16.2985 0.000488281 10.4997 0.000488281ZM13.7887 10.9966L9.24951 15.5352C8.97693 15.8081 8.53339 15.8081 8.25995 15.5352C7.98737 15.2617 7.98737 14.8184 8.25995 14.5454L12.3068 10.499L8.25995 6.45215C7.98737 6.1792 7.98737 5.73584 8.25995 5.46289C8.53339 5.18945 8.97693 5.18945 9.24951 5.46289L13.7887 10.0024C13.9268 10.1396 13.9952 10.3203 13.9938 10.499C13.9938 10.6797 13.9268 10.8584 13.7887 10.9966Z"
          fill="#C7B299"/>
</svg>
