<svg width="22" height="22" viewBox="0 0 22 22" fill="none" xmlns="http://www.w3.org/2000/svg">
<path fill-rule="evenodd" clip-rule="evenodd" d="M7.583 10.434L12.355 5.661C12.642 5.375 13.108 5.375 13.395 5.661C13.682 5.949 13.682 6.416 13.395 6.702L9.141 10.957L13.395 15.211C13.682 15.498 13.682 15.963 13.395 16.251C13.108 16.538 12.642 16.538 12.355 16.251L7.583 11.48C7.438 11.335 7.366 11.145 7.367 10.957C7.367 10.767 7.438 10.579 7.583 10.434ZM10.987 0.026001C17.053 0.026001 21.972 4.943 21.972 11.011C21.972 17.076 17.053 21.995 10.987 21.995C4.921 21.995 0.00299835 17.076 0.00299835 11.011C0.00299835 4.943 4.921 0.026001 10.987 0.026001ZM10.987 20.523C16.232 20.523 20.501 16.253 20.501 11.011C20.501 5.765 16.232 1.497 10.987 1.497C5.743 1.497 1.475 5.765 1.475 11.011C1.475 16.253 5.743 20.523 10.987 20.523Z" fill="#D1D1D1"/>
</svg>
