<svg width="22" height="22" viewBox="0 0 22 22" fill="none" xmlns="http://www.w3.org/2000/svg">
<path fill-rule="evenodd" clip-rule="evenodd" d="M14.417 10.434L9.645 5.661C9.358 5.375 8.892 5.375 8.605 5.661C8.318 5.949 8.318 6.416 8.605 6.702L12.859 10.957L8.605 15.211C8.318 15.498 8.318 15.963 8.605 16.251C8.892 16.538 9.358 16.538 9.645 16.251L14.417 11.48C14.562 11.335 14.634 11.145 14.633 10.957C14.633 10.767 14.562 10.579 14.417 10.434ZM11.012 0.026001C4.946 0.026001 0.0279999 4.943 0.0279999 11.011C0.0279999 17.076 4.946 21.995 11.012 21.995C17.079 21.995 21.997 17.076 21.997 11.011C21.997 4.943 17.079 0.026001 11.012 0.026001ZM11.012 20.523C5.768 20.523 1.499 16.253 1.499 11.011C1.499 5.765 5.768 1.497 11.012 1.497C16.257 1.497 20.525 5.765 20.525 11.011C20.525 16.253 16.257 20.523 11.012 20.523Z" fill="#D1D1D1"/>
</svg>
