<svg width="44" height="44" viewBox="0 0 44 44" fill="none" xmlns="http://www.w3.org/2000/svg">
    <path d="M28.8729 23.3735H15.1255C14.3666 23.3735 13.7507 23.9897 13.7507 24.7485C13.7507 25.5078 14.3666 26.1235 15.1255 26.1235H28.8729C29.6321 26.1235 30.2475 25.5078 30.2475 24.7485C30.2475 23.9897 29.6321 23.3735 28.8729 23.3735ZM31.6222 15.126H12.3761C11.6171 15.126 11.0013 15.7412 11.0013 16.5005C11.0013 17.2593 11.6171 17.875 12.3761 17.875H31.6222C32.3816 17.875 32.9969 17.2593 32.9969 16.5005C32.9969 15.7412 32.3816 15.126 31.6222 15.126ZM21.9993 0.00341797C9.85205 0.00341797 0.00341797 8.61963 0.00341797 19.2495C0.00341797 25.3247 3.22723 30.7334 8.25165 34.2607V43.9951L17.8875 38.1484C19.2211 38.3682 20.5928 38.4961 21.9993 38.4961C34.1481 38.4961 43.9953 29.8789 43.9953 19.2495C43.9953 8.61963 34.1481 0.00341797 21.9993 0.00341797ZM21.9993 35.7471C20.3934 35.7471 18.843 35.5601 17.3527 35.2422L10.8801 39.1328L10.9669 32.7563C6.00537 29.7725 2.75275 24.8394 2.75275 19.2495C2.75275 10.1392 11.3697 2.75244 21.9993 2.75244C32.6287 2.75244 41.2458 10.1392 41.2458 19.2495C41.2458 28.3604 32.6287 35.7471 21.9993 35.7471Z"
          fill="#C7B299"/>
</svg>
