<svg width="44" height="44" viewBox="0 0 44 44" fill="none" xmlns="http://www.w3.org/2000/svg">
<path fill-rule="evenodd" clip-rule="evenodd" d="M43.927 21.85C43.927 20.23 42.761 18.501 41.322 17.993C39.882 17.483 38.487 16.235 38.081 15.251C37.675 14.269 37.781 12.396 38.436 11.017C39.092 9.638 38.695 7.591 37.55 6.443C36.404 5.297 34.357 4.902 32.977 5.558C31.597 6.214 29.727 6.322 28.746 5.915C27.765 5.51 26.517 4.112 26.005 2.673C25.493 1.234 23.764 0.0670013 22.144 0.0670013C20.523 0.0670013 18.794 1.234 18.282 2.673C17.77 4.112 16.522 5.509 15.541 5.915C14.56 6.322 12.69 6.214 11.31 5.558C9.932 4.902 7.883 5.297 6.737 6.443C5.592 7.591 5.195 9.638 5.851 11.017C6.507 12.397 6.611 14.266 6.204 15.25C5.796 16.232 4.405 17.483 2.966 17.993C1.526 18.501 0.360001 20.23 0.360001 21.85C0.360001 23.471 1.526 25.199 2.966 25.711C4.405 26.223 5.798 27.474 6.206 28.454C6.614 29.434 6.507 31.304 5.851 32.683C5.195 34.062 5.592 36.11 6.737 37.255C7.883 38.402 9.93 38.799 11.31 38.142C12.69 37.486 14.56 37.381 15.541 37.789C16.523 38.196 17.77 39.594 18.282 41.032C18.794 42.468 20.523 43.633 22.144 43.633C23.764 43.633 25.493 42.468 26.005 41.032C26.517 39.594 27.763 38.196 28.744 37.786C29.725 37.378 31.597 37.486 32.977 38.142C34.356 38.799 36.404 38.402 37.55 37.255C38.695 36.11 39.092 34.062 38.436 32.683C37.781 31.304 37.673 29.433 38.079 28.453C38.485 27.472 39.882 26.223 41.322 25.711C42.761 25.199 43.927 23.471 43.927 21.85ZM22.144 29.842C17.724 29.842 14.15 26.27 14.15 21.859C14.15 17.44 17.724 13.865 22.144 13.865C26.554 13.865 30.128 17.44 30.128 21.859C30.128 26.27 26.554 29.842 22.144 29.842Z" fill="#545454"/>
</svg>
