<svg width="18" height="24" viewBox="0 0 18 24" fill="none" xmlns="http://www.w3.org/2000/svg">
<path fill-rule="evenodd" clip-rule="evenodd" d="M14.995 2.999H13.496C13.496 1.342 11.483 -0.0019989 8.999 -0.0019989C6.514 -0.0019989 4.501 1.342 4.501 2.999H3.002C1.346 2.999 0.00300026 4.341 0.00300026 5.997V20.995C0.00300026 22.651 1.346 23.994 3.002 23.994H14.995C16.652 23.994 17.994 22.651 17.994 20.995V5.997C17.994 4.341 16.652 2.999 14.995 2.999ZM8.999 1.498C10.655 1.498 11.997 1.962 11.997 2.999H6C6 1.962 7.343 1.498 8.999 1.498ZM16.495 20.995C16.495 21.823 15.824 22.494 14.995 22.494H3.002C2.174 22.494 1.502 21.823 1.502 20.995V19.495H16.495V20.995ZM16.495 17.995H1.502V5.997C1.502 5.169 2.174 4.497 3.002 4.497H4.501V8.998H6V4.497H11.997V8.998H13.496V4.497H14.995C15.824 4.497 16.495 5.169 16.495 5.997V17.995Z" fill="white"/>
</svg>
