<svg width="49" height="49" viewBox="0 0 49 49" fill="none" xmlns="http://www.w3.org/2000/svg">
    <path fill-rule="evenodd" clip-rule="evenodd"
          d="M47.668 19.717L33.402 33.985L0.533997 48.463L15.011 15.591L29.279 1.327C29.898 0.706002 30.904 0.706002 31.527 1.327C32.148 1.95 32.148 2.955 31.527 3.576L17.683 17.422L9.107 36.888L12.106 39.887L31.573 31.314L45.42 17.47C46.039 16.847 47.043 16.847 47.668 17.47C48.289 18.09 48.289 19.1 47.668 19.717ZM29.745 28.466C29.434 28.773 29.028 28.931 28.62 28.931C28.211 28.931 27.805 28.773 27.495 28.466C26.875 27.843 26.875 26.836 27.495 26.216L40.827 12.885C41.45 12.26 42.454 12.26 43.077 12.885C43.7 13.505 43.7 14.51 43.077 15.134L29.745 28.466ZM26.265 24.985C25.955 25.293 25.549 25.45 25.14 25.45C24.734 25.45 24.326 25.293 24.015 24.985C23.394 24.364 23.394 23.354 24.015 22.735L37.348 9.403C37.97 8.78 38.974 8.78 39.598 9.403C40.219 10.023 40.219 11.03 39.598 11.653L26.265 24.985ZM22.784 21.502C22.473 21.814 22.065 21.968 21.659 21.968C21.253 21.968 20.845 21.814 20.534 21.502C19.914 20.883 19.914 19.873 20.534 19.253L33.867 5.922C34.49 5.298 35.495 5.298 36.117 5.922C36.739 6.542 36.739 7.548 36.117 8.172L22.784 21.502Z"
          fill="#545454"/>
</svg>
