<svg width="24" height="24" viewBox="0 0 24 24" fill="none" xmlns="http://www.w3.org/2000/svg">
    <path fill-rule="evenodd" clip-rule="evenodd"
          d="M23.761 22.683L17.568 16.588C19.189 14.827 20.186 12.496 20.186 9.931C20.185 4.445 15.667 0 10.092 0C4.518 0 0 4.445 0 9.931C0 15.418 4.518 19.864 10.092 19.864C12.501 19.864 14.71 19.03 16.445 17.646L22.662 23.765C22.965 24.064 23.457 24.064 23.76 23.765C24.064 23.466 24.064 22.981 23.761 22.683ZM10.092 18.336C5.376 18.336 1.552 14.574 1.552 9.931C1.552 5.29 5.376 1.527 10.092 1.527C14.809 1.527 18.632 5.29 18.632 9.931C18.632 14.574 14.809 18.336 10.092 18.336Z"
          fill="white"/>
</svg>
