<svg width="44" height="44" viewBox="0 0 44 44" fill="none" xmlns="http://www.w3.org/2000/svg">
    <path d="M30.25 0C29.8256 0 29.4026 0.025879 28.9823 0.0644531C28.8279 0.0786133 28.6763 0.100586 28.5231 0.120605C28.2654 0.151855 28.0103 0.190918 27.755 0.237793C27.567 0.272461 27.3831 0.310547 27.2032 0.352051C26.9924 0.399902 26.7828 0.456055 26.5735 0.513672C26.3746 0.569336 26.1774 0.622559 25.9827 0.686035C25.8054 0.743652 25.6335 0.813477 25.4589 0.878418C24.9996 1.05078 24.5513 1.24463 24.1162 1.46143C24.0303 1.50342 23.9403 1.54248 23.8557 1.58838C23.6273 1.70898 23.4071 1.84326 23.1842 1.97559C23.0634 2.05029 22.9399 2.12012 22.8191 2.19824C22.6036 2.33594 22.3975 2.4834 22.1914 2.63184C22.1289 2.67725 22.0631 2.71826 21.9999 2.76416C19.6226 0.97461 16.735 0 13.75 0C6.16797 0 -0.00012207 6.1665 -0.00012207 13.75C-0.00012207 26.1943 8.0022 37.4521 21.4059 43.8628C21.5945 43.9541 21.7979 43.9995 21.9999 43.9995C22.2021 43.9995 22.4055 43.9541 22.5941 43.8628C35.9971 37.4521 43.9999 26.1943 43.9999 13.75C43.9999 6.1665 37.8313 0 30.25 0ZM21.9999 41.0972C9.93445 35.1079 2.74988 24.9272 2.74988 13.75C2.74988 7.68457 7.68469 2.75 13.75 2.75C15.9689 2.75 18.118 3.43457 19.9402 4.68311C17.8051 7.10693 16.5 10.2749 16.5 13.75C16.5 14.5083 17.1143 15.1245 17.875 15.1245C18.6356 15.1245 19.2499 14.5083 19.2499 13.75C19.2499 10.4761 20.6962 7.53857 22.9735 5.52344C23.1842 5.33447 23.4045 5.15723 23.6273 4.98682C23.6785 4.95117 23.728 4.91162 23.7791 4.87402C23.9979 4.71484 24.2223 4.56201 24.4518 4.42041C24.515 4.38037 24.578 4.34082 24.6426 4.30371C24.864 4.17041 25.0909 4.04639 25.3206 3.93066C25.3999 3.89111 25.4818 3.85254 25.5624 3.81396C25.7825 3.70996 26.0055 3.61035 26.2323 3.52148C26.3318 3.48145 26.4338 3.44531 26.5371 3.4082C26.7507 3.33154 26.9655 3.25879 27.1831 3.19531C27.3159 3.1582 27.4449 3.125 27.5778 3.09326C27.7751 3.04395 27.97 2.99268 28.1714 2.95312C28.3525 2.91992 28.5365 2.89551 28.7192 2.86963C28.875 2.8457 29.0308 2.81934 29.1891 2.80322C29.5382 2.77051 29.8927 2.75 30.25 2.75C36.3152 2.75 41.2499 7.68457 41.2499 13.75C41.2499 24.9272 34.0662 35.1079 21.9999 41.0972ZM30.25 5.49951C29.49 5.49951 28.875 6.11621 28.875 6.87451C28.875 7.6333 29.49 8.25 30.25 8.25C33.2833 8.25 35.75 10.7163 35.75 13.75C35.75 14.5083 36.365 15.1245 37.125 15.1245C37.8849 15.1245 38.5 14.5083 38.5 13.75C38.5 9.20019 34.7993 5.49951 30.25 5.49951Z"
          fill="#C7B299"/>
</svg>
