<svg width="182" height="57" viewBox="0 0 182 57" fill="none" xmlns="http://www.w3.org/2000/svg">
    <path d="M76.104 13.03H78.348L81.748 21.598L85.182 13.03H87.46L83.244 23.332L87.868 34.246L96.606 12.86H99.19L88.956 37H86.848L81.782 25.066L76.682 37H74.608L64.408 12.86H66.958L75.73 34.246L80.32 23.332L76.104 13.03ZM98.8896 31.9C98.8896 30.812 99.2069 29.8713 99.8416 29.078C100.476 28.262 101.349 27.6273 102.46 27.174C103.593 26.7207 104.896 26.494 106.37 26.494C107.231 26.494 108.126 26.5733 109.056 26.732C109.985 26.868 110.812 27.0607 111.538 27.31V25.814C111.538 24.318 111.096 23.128 110.212 22.244C109.328 21.36 108.104 20.918 106.54 20.918C105.61 20.918 104.681 21.0993 103.752 21.462C102.822 21.802 101.859 22.312 100.862 22.992L99.9776 21.36C101.134 20.5667 102.267 19.9773 103.378 19.592C104.488 19.184 105.622 18.98 106.778 18.98C108.954 18.98 110.676 19.6033 111.946 20.85C113.215 22.0967 113.85 23.8193 113.85 26.018V34.212C113.85 34.824 114.133 35.1413 114.7 35.164V37C114.201 37.068 113.85 37.0907 113.646 37.068C113.079 37.0453 112.648 36.864 112.354 36.524C112.059 36.184 111.9 35.8213 111.878 35.436L111.844 34.144C111.05 35.164 110.019 35.9573 108.75 36.524C107.48 37.068 106.188 37.34 104.874 37.34C103.718 37.34 102.686 37.102 101.78 36.626C100.873 36.1273 100.159 35.47 99.6376 34.654C99.1389 33.8153 98.8896 32.8973 98.8896 31.9ZM110.756 33.26C111.277 32.648 111.538 32.0813 111.538 31.56V28.976C109.974 28.364 108.342 28.058 106.642 28.058C104.987 28.058 103.65 28.3867 102.63 29.044C101.61 29.7013 101.1 30.5967 101.1 31.73C101.1 32.7047 101.474 33.5887 102.222 34.382C102.992 35.1753 104.058 35.572 105.418 35.572C106.528 35.572 107.56 35.3567 108.512 34.926C109.486 34.4953 110.234 33.94 110.756 33.26ZM119.389 19.286L124.591 26.222L124.863 26.732L125.135 26.222L130.303 19.286H132.921L126.189 28.194L132.921 37H130.303L125.135 30.098L124.863 29.622L124.591 30.098L119.423 37H116.805L123.503 28.194L116.805 19.286H119.389ZM142.729 37.34C141.029 37.34 139.51 36.9207 138.173 36.082C136.858 35.2433 135.827 34.1327 135.079 32.75C134.331 31.3447 133.957 29.826 133.957 28.194C133.957 26.5393 134.331 25.0207 135.079 23.638C135.85 22.2327 136.892 21.1107 138.207 20.272C139.544 19.4107 141.052 18.98 142.729 18.98C144.429 18.98 145.936 19.4107 147.251 20.272C148.588 21.1107 149.631 22.2327 150.379 23.638C151.15 25.0207 151.535 26.5393 151.535 28.194C151.535 29.826 151.161 31.3447 150.413 32.75C149.665 34.1327 148.622 35.2433 147.285 36.082C145.97 36.9207 144.452 37.34 142.729 37.34ZM136.303 28.228C136.303 29.5427 136.586 30.744 137.153 31.832C137.742 32.8973 138.524 33.7473 139.499 34.382C140.474 34.994 141.55 35.3 142.729 35.3C143.908 35.3 144.984 34.9827 145.959 34.348C146.934 33.7133 147.716 32.852 148.305 31.764C148.894 30.676 149.189 29.4747 149.189 28.16C149.189 26.8453 148.894 25.644 148.305 24.556C147.716 23.468 146.934 22.6067 145.959 21.972C144.984 21.3373 143.908 21.02 142.729 21.02C141.573 21.02 140.508 21.3487 139.533 22.006C138.558 22.6407 137.776 23.502 137.187 24.59C136.598 25.678 136.303 26.8907 136.303 28.228ZM181.752 37H179.44V27.106C179.44 25.066 179.111 23.5587 178.454 22.584C177.796 21.5867 176.822 21.088 175.53 21.088C174.17 21.088 172.968 21.564 171.926 22.516C170.883 23.468 170.146 24.692 169.716 26.188V37H167.404V27.106C167.404 25.0207 167.075 23.502 166.418 22.55C165.783 21.5753 164.82 21.088 163.528 21.088C162.19 21.088 160.989 21.5527 159.924 22.482C158.881 23.4113 158.144 24.6353 157.714 26.154V37H155.402V19.286H157.51V23.298C158.235 21.938 159.187 20.884 160.366 20.136C161.544 19.3653 162.848 18.98 164.276 18.98C165.749 18.98 166.939 19.4107 167.846 20.272C168.752 21.1107 169.308 22.1987 169.512 23.536C171.144 20.4987 173.422 18.98 176.346 18.98C178.34 18.98 179.734 19.6827 180.528 21.088C181.344 22.4707 181.752 24.318 181.752 26.63V37Z"
          fill="white"/>
    <path d="M52.87 56.13L58.13 46.94L63.38 56.13H52.87ZM46.3 46.17H56.81L51.56 55.36L46.3 46.17ZM51.56 35.45L56.81 44.64H46.3L51.56 35.45ZM39.74 34.69H50.24L44.99 43.87L39.74 34.69ZM44.99 23.97L50.24 33.15H39.74L44.99 23.97ZM33.17 23.2H43.68L38.42 32.39L33.17 23.2ZM38.42 12.48L43.68 21.67H33.17L38.42 12.48ZM26.6 11.71H37.11L31.85 20.9L26.6 11.71ZM31.85 0.98999L37.11 10.18H26.6L31.85 0.98999ZM20.03 21.67L25.29 12.48L30.54 21.67H20.03ZM13.46 33.15L18.72 23.97L23.97 33.15H13.46ZM6.89996 44.64L12.15 35.45L17.4 44.64H6.89996ZM0.329956 56.13L5.57996 46.94L10.84 56.13H0.329956ZM17.4 46.17L12.15 55.36L6.89996 46.17H17.4ZM23.97 34.69L18.72 43.87L13.46 34.69H23.97ZM30.54 23.2L25.29 32.39L20.03 23.2H30.54ZM37.11 56.13H26.6L31.85 46.94L37.11 56.13ZM43.68 46.17L38.42 55.36L33.17 46.17H43.68ZM50.24 56.13H39.74L44.99 46.94L50.24 56.13Z"
          fill="white"/>
</svg>
