<svg width="26" height="25" viewBox="0 0 26 25" fill="none" xmlns="http://www.w3.org/2000/svg">
    <path fill-rule="evenodd" clip-rule="evenodd"
        d="M25.456 24.172C25.135 24.489 24.714 24.646 24.293 24.646C23.873 24.646 23.451 24.489 23.13 24.172L18.795 19.901C16.902 21.348 14.535 22.218 11.959 22.218C5.79299 22.218 0.776993 17.276 0.776993 11.202C0.776993 5.128 5.79299 0.186001 11.959 0.186001C18.125 0.186001 23.141 5.128 23.141 11.202C23.141 13.572 22.37 15.764 21.073 17.563L25.456 21.881C26.098 22.514 26.098 23.54 25.456 24.172ZM11.96 2.778C7.24499 2.778 3.40899 6.557 3.40899 11.202C3.40899 15.847 7.24499 19.626 11.96 19.627C14.064 19.627 15.99 18.871 17.481 17.624C17.941 17.24 18.355 16.805 18.724 16.336C19.84 14.913 20.51 13.135 20.51 11.202C20.51 6.557 16.674 2.778 11.96 2.778ZM16.81 9.581C16.625 9.668 16.429 9.711 16.234 9.711C15.747 9.711 15.28 9.444 15.052 8.983C14.347 7.559 12.911 6.674 11.304 6.674C10.578 6.674 9.98899 6.094 9.98899 5.377C9.98899 4.663 10.578 4.082 11.304 4.082C13.925 4.082 16.268 5.525 17.417 7.847C17.735 8.491 17.464 9.267 16.81 9.581Z"
        fill="white" />
</svg>