<svg width="52" height="36" viewBox="0 0 52 36" fill="none" xmlns="http://www.w3.org/2000/svg">
<path fill-rule="evenodd" clip-rule="evenodd" d="M51.411 14.341L41.921 33.763C41.326 34.984 39.729 35.984 38.378 35.984H3.08001C1.73001 35.984 1.11201 34.982 1.71101 33.763L11.203 14.341C11.796 13.118 13.392 12.115 14.742 12.115H50.04C51.394 12.115 52.009 13.118 51.411 14.341ZM9.00001 13.245L0.738007 30.147V7.983C0.738007 6.619 1.84301 5.501 3.19601 5.502H14.012V4.058C14.012 3.063 14.394 2.135 15.094 1.43C15.793 0.722999 16.717 0.334999 17.701 0.334999H23.991C26.02 0.334999 27.675 2.002 27.675 4.058V5.501H38.491C39.842 5.501 40.949 6.619 40.949 7.983V9.637H14.742C12.475 9.637 10.002 11.187 9.00001 13.245ZM16.47 5.502H25.217V4.058C25.217 3.37 24.667 2.815 23.989 2.815H17.698C17.372 2.815 17.063 2.945 16.832 3.183C16.602 3.417 16.47 3.73 16.47 4.058V5.502Z" fill="#545454"/>
</svg>
