<svg width="71" height="71" viewBox="0 0 71 71" fill="none" xmlns="http://www.w3.org/2000/svg">
    <path
        d="M31.2557 18.6564L48.9697 33.4184C49.4397 33.8104 49.7118 34.3894 49.7118 35.0004C49.7118 35.6124 49.4397 36.1914 48.9697 36.5834L31.2557 51.3464C30.8787 51.6604 30.4097 51.8234 29.9367 51.8234C29.6407 51.8234 29.3417 51.7584 29.0627 51.6294C28.3397 51.2904 27.8768 50.5624 27.8768 49.7634V20.2384C27.8768 19.4394 28.3397 18.7114 29.0627 18.3734C29.7857 18.0334 30.6427 18.1444 31.2557 18.6564ZM31.9967 45.3654L44.4338 35.0004L31.9967 24.6364V45.3654ZM59.7617 59.7624C53.0357 66.4874 44.0288 70.0014 34.9398 70.0014C29.0748 70.0024 23.1757 68.5394 17.8337 65.5314C16.8417 64.9734 16.4907 63.7164 17.0487 62.7254C17.6067 61.7344 18.8627 61.3824 19.8547 61.9414C31.8727 68.7064 47.0848 66.6144 56.8478 56.8484C68.8948 44.8014 68.8948 25.2004 56.8478 13.1534C44.8008 1.10437 25.1987 1.10537 13.1527 13.1534C1.10675 25.2004 1.10675 44.8014 13.1527 56.8484C13.9577 57.6534 13.9577 58.9574 13.1527 59.7624C12.3497 60.5664 11.0447 60.5664 10.2397 59.7624C-3.41325 46.1084 -3.41325 23.8934 10.2397 10.2394C23.8938 -3.41263 46.1067 -3.41362 59.7617 10.2394C73.4147 23.8934 73.4147 46.1084 59.7617 59.7624Z"
        fill="white" />
</svg>